<svg width="40" height="40" viewBox="0 0 40 40" fill="none" xmlns="http://www.w3.org/2000/svg">
<path d="M0 12.5C0 5.59644 5.59644 0 12.5 0H27.5C34.4036 0 40 5.59644 40 12.5V27.5C40 34.4036 34.4036 40 27.5 40H12.5C5.59644 40 0 34.4036 0 27.5V12.5Z" fill="url(#paint0_linear_114_1620)"/>
<path fill-rule="evenodd" clip-rule="evenodd" d="M15 13.015C15 12.6994 15.1783 12.4108 15.4607 12.2697L20 10L24.5393 12.2697C24.8217 12.4108 25 12.6994 25 13.015V27.5L26.6667 27.5V23.3333H28.75C28.9801 23.3333 29.1667 23.1468 29.1667 22.9167V22.0833C29.1667 21.8532 28.9801 21.6667 28.75 21.6667H26.6667V20H28.75C28.9801 20 29.1667 19.8135 29.1667 19.5833V18.75C29.1667 18.5199 28.9801 18.3333 28.75 18.3333H26.6667V16.8835C26.6667 16.3468 27.1667 15.95 27.6894 16.072L30.1894 16.6553C30.5665 16.7433 30.8333 17.0795 30.8333 17.4668V27.5L31.6667 27.5C32.1269 27.5 32.5 27.8731 32.5 28.3333V29.1667C32.5 29.6269 32.1269 30 31.6667 30H8.33333C7.8731 30 7.5 29.6269 7.5 29.1667V28.3333C7.5 27.8731 7.8731 27.5 8.33333 27.5L9.16667 27.5V17.4668C9.16667 17.0795 9.43348 16.7433 9.81064 16.6553L12.3106 16.072C12.8333 15.95 13.3333 16.3468 13.3333 16.8835V18.3333L11.25 18.3333C11.0199 18.3333 10.8333 18.5199 10.8333 18.75V19.5833C10.8333 19.8135 11.0199 20 11.25 20H13.3333V21.6667H11.25C11.0199 21.6667 10.8333 21.8532 10.8333 22.0833V22.9167C10.8333 23.1468 11.0199 23.3333 11.25 23.3333H13.3333V27.5L15 27.5V13.015ZM20.8333 27.5V25.4861C20.8333 25.2176 20.6157 25 20.3472 25H19.6528C19.3843 25 19.1667 25.2176 19.1667 25.4861V27.5H20.8333ZM16.6667 13.8194C16.6667 13.551 16.8843 13.3333 17.1528 13.3333H18.6806C18.949 13.3333 19.1667 13.551 19.1667 13.8194V15.3472C19.1667 15.6157 18.949 15.8333 18.6806 15.8333H17.1528C16.8843 15.8333 16.6667 15.6157 16.6667 15.3472V13.8194ZM16.6667 17.9861C16.6667 17.7176 16.8843 17.5 17.1528 17.5H18.6806C18.949 17.5 19.1667 17.7176 19.1667 17.9861V19.5139C19.1667 19.7824 18.949 20 18.6806 20H17.1528C16.8843 20 16.6667 19.7824 16.6667 19.5139V17.9861ZM17.1528 21.6667C16.8843 21.6667 16.6667 21.8843 16.6667 22.1528V23.6806C16.6667 23.949 16.8843 24.1667 17.1528 24.1667H18.6806C18.949 24.1667 19.1667 23.949 19.1667 23.6806V22.1528C19.1667 21.8843 18.949 21.6667 18.6806 21.6667H17.1528ZM20.8333 13.8194C20.8333 13.551 21.051 13.3333 21.3194 13.3333H22.8472C23.1157 13.3333 23.3333 13.551 23.3333 13.8194V15.3472C23.3333 15.6157 23.1157 15.8333 22.8472 15.8333H21.3194C21.051 15.8333 20.8333 15.6157 20.8333 15.3472V13.8194ZM21.3194 17.5C21.051 17.5 20.8333 17.7176 20.8333 17.9861V19.5139C20.8333 19.7824 21.051 20 21.3194 20H22.8472C23.1157 20 23.3333 19.7824 23.3333 19.5139V17.9861C23.3333 17.7176 23.1157 17.5 22.8472 17.5H21.3194ZM20.8333 22.1528C20.8333 21.8843 21.051 21.6667 21.3194 21.6667H22.8472C23.1157 21.6667 23.3333 21.8843 23.3333 22.1528V23.6806C23.3333 23.949 23.1157 24.1667 22.8472 24.1667H21.3194C21.051 24.1667 20.8333 23.949 20.8333 23.6806V22.1528Z" fill="white"/>
<defs>
<linearGradient id="paint0_linear_114_1620" x1="20" y1="5.96046e-07" x2="20" y2="40" gradientUnits="userSpaceOnUse">
<stop stop-color="#FA86BB"/>
<stop offset="1" stop-color="#E373A6"/>
</linearGradient>
</defs>
</svg>
