<svg width="40" height="40" viewBox="0 0 40 40" fill="none" xmlns="http://www.w3.org/2000/svg">
<path d="M0 12.5C0 5.59644 5.59644 0 12.5 0H27.5C34.4036 0 40 5.59644 40 12.5V27.5C40 34.4036 34.4036 40 27.5 40H12.5C5.59644 40 0 34.4036 0 27.5V12.5Z" fill="url(#paint0_linear_114_1624)"/>
<path d="M0 12.5C0 5.59644 5.59644 0 12.5 0H27.5C34.4036 0 40 5.59644 40 12.5V27.5C40 34.4036 34.4036 40 27.5 40H12.5C5.59644 40 0 34.4036 0 27.5V12.5Z" fill="url(#paint1_linear_114_1624)"/>
<path d="M12.8572 13.6917C16.8021 9.84644 23.198 9.84644 27.1429 13.6917L28.3334 12.5313C23.731 8.04515 16.2691 8.04515 11.6667 12.5313L12.8572 13.6917Z" fill="white"/>
<path d="M15.2382 16.0125C17.8681 13.449 22.1321 13.449 24.762 16.0125L25.9525 14.8521C22.6651 11.6477 17.3351 11.6477 14.0477 14.8521L15.2382 16.0125Z" fill="white"/>
<path d="M22.381 18.3334C21.0661 17.0516 18.9341 17.0516 17.6191 18.3334L16.4287 17.1729C18.4011 15.2503 21.5991 15.2503 23.5715 17.1729L22.381 18.3334Z" fill="white"/>
<path fill-rule="evenodd" clip-rule="evenodd" d="M29.8009 16.9496C29.9945 16.5559 29.8497 16.0796 29.4698 15.8602L29.3767 15.8065C28.9968 15.5871 28.5118 15.6999 28.2677 16.0644L22.2827 25H17.7507L11.7657 16.0644C11.5215 15.6999 11.0366 15.5871 10.6566 15.8065L10.5636 15.8602C10.1837 16.0796 10.0389 16.5559 10.2325 16.9496L14.1913 25H10.0001C9.53984 25 9.16675 25.3731 9.16675 25.8333V27.6877C9.16675 27.8376 9.20715 27.9847 9.2837 28.1135L10.6579 30.4257C10.808 30.6785 11.0803 30.8333 11.3742 30.8333H28.6259C28.9199 30.8333 29.1921 30.6785 29.3423 30.4257L30.7165 28.1135C30.793 27.9847 30.8334 27.8376 30.8334 27.6877V25.8333C30.8334 25.3731 30.4603 25 30.0001 25H25.8421L29.8009 16.9496ZM24.1667 28.3334C24.627 28.3334 25.0001 27.9603 25.0001 27.5C25.0001 27.0398 24.627 26.6667 24.1667 26.6667C23.7065 26.6667 23.3334 27.0398 23.3334 27.5C23.3334 27.9603 23.7065 28.3334 24.1667 28.3334ZM27.5001 28.3334C27.9603 28.3334 28.3334 27.9603 28.3334 27.5C28.3334 27.0398 27.9603 26.6667 27.5001 26.6667C27.0398 26.6667 26.6667 27.0398 26.6667 27.5C26.6667 27.9603 27.0398 28.3334 27.5001 28.3334Z" fill="white"/>
<defs>
<linearGradient id="paint0_linear_114_1624" x1="20" y1="5.96046e-07" x2="20" y2="40" gradientUnits="userSpaceOnUse">
<stop stop-color="#65DFFF"/>
<stop offset="1" stop-color="#8C72FB"/>
</linearGradient>
<linearGradient id="paint1_linear_114_1624" x1="20" y1="0" x2="20" y2="40" gradientUnits="userSpaceOnUse">
<stop stop-color="#FFB257"/>
<stop offset="1" stop-color="#FF8957"/>
</linearGradient>
</defs>
</svg>
