<svg width="40" height="40" viewBox="0 0 40 40" fill="none" xmlns="http://www.w3.org/2000/svg">
<path d="M0 12.5C0 5.59644 5.59644 0 12.5 0H27.5C34.4036 0 40 5.59644 40 12.5V27.5C40 34.4036 34.4036 40 27.5 40H12.5C5.59644 40 0 34.4036 0 27.5V12.5Z" fill="url(#paint0_linear_114_1638)"/>
<path d="M8.63074 15.4258C8.23409 15.5626 8.23409 16.1041 8.63074 16.2409L19.0953 19.8488C19.6803 20.0504 20.3195 20.0504 20.9045 19.8488L29.9999 16.7129V20.0025C29.3692 20.0468 28.9735 20.6719 29.2632 21.206L30.4166 23.3334L31.57 21.206C31.8596 20.6719 31.464 20.0468 30.8333 20.0025V16.4256L31.3691 16.2409C31.7657 16.1041 31.7657 15.5626 31.3691 15.4258L20.9045 11.8179C20.3195 11.6163 19.6803 11.6163 19.0953 11.8179L8.63074 15.4258Z" fill="white"/>
<path d="M27.4999 26.1198V19.3378L21.4477 21.4244C20.5108 21.7474 19.489 21.7474 18.5521 21.4244L12.4999 19.3378V26.1198C12.4999 26.9388 13.0889 27.6377 13.8926 27.7724L14.52 27.8775C18.1482 28.4853 21.8516 28.4853 25.4799 27.8775L26.1073 27.7724C26.9109 27.6377 27.4999 26.9388 27.4999 26.1198Z" fill="white"/>
<defs>
<linearGradient id="paint0_linear_114_1638" x1="20" y1="5.96046e-07" x2="20" y2="40" gradientUnits="userSpaceOnUse">
<stop stop-color="#FFD149"/>
<stop offset="1" stop-color="#FFC46C"/>
</linearGradient>
</defs>
</svg>
