<svg width="40" height="40" viewBox="0 0 40 40" fill="none" xmlns="http://www.w3.org/2000/svg">
<path d="M0 12.5C0 5.59644 5.59644 0 12.5 0H27.5C34.4036 0 40 5.59644 40 12.5V27.5C40 34.4036 34.4036 40 27.5 40H12.5C5.59644 40 0 34.4036 0 27.5V12.5Z" fill="url(#paint0_linear_114_1614)"/>
<path d="M21.6554 17.1914C22.1913 16.3095 22.4999 15.2741 22.4999 14.1666C22.4999 13.4074 22.3549 12.6821 22.091 12.0168C21.2351 9.85909 19.129 8.33331 16.6666 8.33331C13.4449 8.33331 10.8333 10.945 10.8333 14.1666C10.8333 17.3883 13.4449 20 16.6666 20C18.7147 20 20.5164 18.9444 21.5571 17.3476C21.5907 17.2961 21.6234 17.2441 21.6554 17.1914Z" fill="white"/>
<path d="M24.1666 14.1666C24.1666 15.7908 23.6503 17.2944 22.773 18.5222C23.4171 18.9304 24.1809 19.1666 24.9999 19.1666C27.3011 19.1666 29.1666 17.3012 29.1666 15C29.1666 12.6988 27.3011 10.8333 24.9999 10.8333C24.477 10.8333 23.9766 10.9296 23.5155 11.1055C23.9339 12.0402 24.1666 13.0763 24.1666 14.1666Z" fill="white"/>
<path d="M8.33325 28.8889C8.33325 25.8206 10.8206 23.3333 13.8888 23.3333H19.4444C19.6169 23.3333 19.7877 23.3412 19.9562 23.3566C19.975 23.3583 19.9937 23.3601 20.0124 23.362C22.8138 23.6465 24.9999 26.0124 24.9999 28.8889V31.6666H8.33325V28.8889Z" fill="white"/>
<path d="M31.6666 27.6666V29.1666H26.6666V28.8889C26.6666 25.7176 24.6226 23.0237 21.7802 22.0527C22.3667 21.8032 23.0025 21.6666 23.6666 21.6666H26.3333C29.2788 21.6666 31.6666 24.3529 31.6666 27.6666Z" fill="white"/>
<defs>
<linearGradient id="paint0_linear_114_1614" x1="20" y1="5.96046e-07" x2="20" y2="40" gradientUnits="userSpaceOnUse">
<stop stop-color="#65DFFF"/>
<stop offset="1" stop-color="#8C72FB"/>
</linearGradient>
</defs>
</svg>
