<svg width="40" height="40" viewBox="0 0 40 40" fill="none" xmlns="http://www.w3.org/2000/svg">
<path d="M0 12.5C0 5.59644 5.59644 0 12.5 0H27.5C34.4036 0 40 5.59644 40 12.5V27.5C40 34.4036 34.4036 40 27.5 40H12.5C5.59644 40 0 34.4036 0 27.5V12.5Z" fill="url(#paint0_linear_114_1610)"/>
<path fill-rule="evenodd" clip-rule="evenodd" d="M15.8333 13.3333V12.5C15.8333 11.1193 16.9525 10 18.3333 10H21.6666C23.0473 10 24.1666 11.1193 24.1666 12.5V13.3333H29.9999C30.9204 13.3333 31.6666 14.0795 31.6666 15V18.3333H21.6666C21.6666 17.4129 20.9204 16.6667 19.9999 16.6667C19.0794 16.6667 18.3333 17.4129 18.3333 18.3333H8.33325V15C8.33325 14.0795 9.07944 13.3333 9.99992 13.3333H15.8333ZM17.4999 12.5C17.4999 12.0398 17.873 11.6667 18.3333 11.6667H21.6666C22.1268 11.6667 22.4999 12.0398 22.4999 12.5V13.3333H17.4999V12.5Z" fill="white"/>
<path d="M21.6666 20H31.6666V28.3333C31.6666 29.2538 30.9204 30 29.9999 30H9.99992C9.07944 30 8.33325 29.2538 8.33325 28.3333V20H18.3333C18.3333 20.9205 19.0794 21.6667 19.9999 21.6667C20.9204 21.6667 21.6666 20.9205 21.6666 20Z" fill="white"/>
<defs>
<linearGradient id="paint0_linear_114_1610" x1="20" y1="5.96046e-07" x2="20" y2="40" gradientUnits="userSpaceOnUse">
<stop stop-color="#A85FF1"/>
<stop offset="1" stop-color="#7E5FF1"/>
</linearGradient>
</defs>
</svg>
