<svg width="40" height="40" viewBox="0 0 40 40" fill="none" xmlns="http://www.w3.org/2000/svg">
<path d="M0 12.5C0 5.59644 5.59644 0 12.5 0H27.5C34.4036 0 40 5.59644 40 12.5V27.5C40 34.4036 34.4036 40 27.5 40H12.5C5.59644 40 0 34.4036 0 27.5V12.5Z" fill="url(#paint0_linear_114_1595)"/>
<path fill-rule="evenodd" clip-rule="evenodd" d="M31.0651 8.9372C29.8446 8.51219 28.558 8.30852 27.2658 8.33579C24.9157 8.41544 22.606 8.96993 20.4759 9.96585C18.3458 10.9618 16.4393 12.3785 14.8714 14.1308C14.4607 14.4858 14.1259 14.9201 13.8872 15.4077C13.6484 15.8952 13.5107 16.426 13.4822 16.9681C13.4536 17.5102 13.5349 18.0525 13.7211 18.5624C13.9074 19.0723 14.1947 19.5394 14.5659 19.9355L20.0656 25.4347C20.4076 25.783 20.8159 26.0595 21.2664 26.2476C21.7169 26.4358 22.2005 26.5319 22.6887 26.5303C23.8931 26.5026 25.0373 25.9988 25.8709 25.1291C34.2733 16.7277 31.0651 8.9372 31.0651 8.9372ZM23.3332 14.1667C22.7548 14.1667 22.1943 14.3673 21.7472 14.7342C21.3002 15.1011 20.9941 15.6117 20.8813 16.179C20.7685 16.7463 20.8558 17.3351 21.1285 17.8452C21.4011 18.3553 21.8422 18.7551 22.3766 18.9764C22.9109 19.1977 23.5055 19.227 24.059 19.059C24.6125 18.8911 25.0906 18.5365 25.4119 18.0556C25.7333 17.5747 25.8779 16.9972 25.8212 16.4216C25.7645 15.846 25.51 15.3079 25.101 14.8989C24.8691 14.6665 24.5935 14.4821 24.2902 14.3564C23.9868 14.2308 23.6616 14.1663 23.3332 14.1667Z" fill="white"/>
<path d="M10.8185 23.922C11.307 23.7197 11.8305 23.6156 12.3592 23.6156C13.427 23.6156 14.451 24.0397 15.206 24.7946C15.9611 25.5496 16.3852 26.5735 16.3852 27.6411C16.3852 28.7088 15.9611 29.7327 15.206 30.4876C14.451 31.2426 13.427 31.6667 12.3592 31.6667H8.33325V27.6411C8.33324 27.1125 8.43737 26.589 8.6397 26.1006C8.84202 25.6122 9.13857 25.1684 9.51242 24.7946C9.88627 24.4208 10.3301 24.1243 10.8185 23.922Z" fill="white"/>
<defs>
<linearGradient id="paint0_linear_114_1595" x1="20" y1="5.96046e-07" x2="20" y2="40" gradientUnits="userSpaceOnUse">
<stop stop-color="#51E78D"/>
<stop offset="1" stop-color="#55C1AE"/>
</linearGradient>
</defs>
</svg>
