<svg width="14" height="14" viewBox="0 0 14 14" fill="none" xmlns="http://www.w3.org/2000/svg">
<path fill-rule="evenodd" clip-rule="evenodd" d="M2.7398 11.26L2.02726 11.97C3.30181 13.22 5.04805 14 6.97493 14C10.8588 14 14 10.87 14 7C14 3.13 10.8588 0 6.97493 0C5.04805 0 3.30181 0.78 2.02726 2.03L2.7398 2.74C3.83371 1.67 5.32905 1 6.97493 1C10.2958 1 12.9964 3.69 12.9964 7C12.9964 10.31 10.2958 13 6.97493 13C5.32905 13 3.83371 12.33 2.7398 11.26ZM6.83441 3.82L9.31326 6.29L10.0258 7L6.83441 10.18C6.73405 10.281 6.60358 10.33 6.47312 10.33C6.35269 10.33 6.22222 10.281 6.12186 10.18C5.93118 9.99 5.93118 9.67 6.12186 9.47L8.10896 7.5H0.501792C0.230824 7.5 0 7.28 0 7C0 6.72 0.230824 6.5 0.501792 6.5H8.10896L6.12186 4.53C5.93118 4.33 5.93118 4.01 6.12186 3.82C6.22222 3.72 6.35269 3.67 6.47312 3.67C6.60358 3.67 6.73405 3.72 6.83441 3.82Z" fill="#7E5FF1"/>
</svg>
