<?xml version="1.0" standalone="no"?>
<!DOCTYPE svg PUBLIC "-//W3C//DTD SVG 20010904//EN"
 "http://www.w3.org/TR/2001/REC-SVG-20010904/DTD/svg10.dtd">
<svg version="1.0" xmlns="http://www.w3.org/2000/svg"
 width="1792.000000pt" height="1792.000000pt" viewBox="0 0 1792.000000 1792.000000"
 preserveAspectRatio="xMidYMid meet">
<metadata>
Created by potrace 1.14, written by Peter Selinger 2001-2017
</metadata>
<g transform="translate(0.000000,1792.000000) scale(0.100000,-0.100000)"
fill="#000000" stroke="none">
<path d="M2295 11674 c-11 -1 -69 -8 -130 -14 -668 -71 -1352 -357 -1883 -787
-120 -98 -277 -245 -277 -260 0 -17 3153 -3154 3260 -3244 120 -99 230 -182
340 -256 1170 -781 2708 -817 3915 -93 149 89 259 166 419 291 99 78 1578
1538 2899 2861 l443 444 -93 85 c-588 537 -1243 845 -2028 955 -177 24 -645
30 -837 10 -544 -58 -1057 -226 -1507 -495 -302 -181 -486 -331 -867 -708
-168 -167 -310 -303 -315 -303 -4 0 -146 137 -314 303 -168 167 -345 337 -395
378 -564 465 -1236 747 -1960 824 -122 13 -600 20 -670 9z"/>
<path d="M14935 11666 c-780 -79 -1466 -368 -2045 -862 -107 -91 -3260 -3219
-3260 -3234 0 -10 156 -150 274 -247 527 -435 1185 -712 1896 -800 201 -24
628 -24 830 0 766 94 1463 405 2020 903 36 31 771 761 1635 1621 l1569 1563
-34 36 c-71 74 -229 210 -357 306 -499 374 -1088 613 -1724 698 -198 27 -613
35 -804 16z"/>
</g>
</svg>
