<svg width="158" height="20" viewBox="0 0 158 20" fill="none" xmlns="http://www.w3.org/2000/svg">
<path d="M55.7899 3.33189C51.331 -1.11063 44.1017 -1.11063 39.6428 3.33189L30.1013 12.8383C34.5602 17.2808 41.7895 17.2808 46.2484 12.8383L55.7899 3.33189Z" fill="url(#paint0_linear_138_127)"/>
<path d="M35.2308 3.33189C30.7719 -1.11063 23.5426 -1.11063 19.0837 3.33189L9.54224 12.8383C14.0011 17.2808 21.2304 17.2808 25.6893 12.8383L35.2308 3.33189Z" fill="url(#paint1_linear_138_127)"/>
<path d="M0 3.33189C4.45889 -1.11063 11.6882 -1.11063 16.1471 3.33189L25.6885 12.8383C21.2297 17.2808 14.0004 17.2808 9.54146 12.8383L0 3.33189Z" fill="url(#paint2_linear_138_127)"/>
<path fill-rule="evenodd" clip-rule="evenodd" d="M69.6572 16.1702V0H66.4368V16.1702H69.6572ZM72.4709 6.22907C71.9146 7.29165 71.6376 8.47804 71.666 9.67689C71.6396 10.8829 71.9163 12.0762 72.4709 13.1477C72.9894 14.0834 73.7633 14.8526 74.7024 15.3657C75.7022 15.9144 76.8284 16.1918 77.9688 16.1702C79.3732 16.221 80.7529 15.7913 81.8796 14.952C82.9283 14.1581 83.6682 13.0246 83.9727 11.7456H80.4993C80.1007 12.9102 79.2496 13.4925 77.9458 13.4925C77.5297 13.5096 77.1153 13.4291 76.7359 13.2574C76.3564 13.0858 76.0225 12.8278 75.7607 12.5041C75.1783 11.6807 74.8942 10.6834 74.9554 9.67689C74.9554 8.45098 75.2238 7.50857 75.7607 6.84966C76.0188 6.52024 76.3514 6.25678 76.7313 6.08095C77.1112 5.90512 77.5275 5.82195 77.9458 5.8383C78.5212 5.81715 79.0874 5.98688 79.556 6.32102C80.0052 6.6331 80.3372 7.08613 80.4993 7.60821H83.9727C83.6896 6.29192 82.9478 5.1189 81.8796 4.2983C80.7492 3.46867 79.3703 3.04724 77.9688 3.10304C76.8255 3.08163 75.6974 3.36741 74.7024 3.93052C73.7525 4.46589 72.9776 5.26407 72.4709 6.22907H72.4709ZM97.9488 9.40106C97.9522 9.81661 97.9214 10.2317 97.8569 10.6423H88.5406C88.5709 11.4602 88.9172 12.2346 89.5069 12.8029C90.0766 13.325 90.8272 13.6053 91.6 13.5844C92.1316 13.6162 92.6604 13.486 93.1164 13.211C93.5723 12.9361 93.934 12.5292 94.1535 12.0444H97.6269C97.2653 13.2344 96.5216 14.2724 95.5107 14.998C94.3951 15.8024 93.0441 16.2147 91.669 16.1702C90.5143 16.188 89.3743 15.9111 88.3566 15.3657C87.3998 14.8501 86.6097 14.0728 86.0791 13.1247C85.5495 12.0483 85.2742 10.8649 85.2742 9.66541C85.2742 8.46597 85.5495 7.2825 86.0791 6.20608C86.59 5.23648 87.3737 4.43747 88.3336 3.90754C89.3575 3.35687 90.5064 3.07975 91.669 3.10304C92.7991 3.08314 93.9156 3.35216 94.9124 3.88455C95.862 4.38898 96.639 5.16536 97.1439 6.11413C97.6948 7.1208 97.9723 8.254 97.9488 9.40106ZM94.6134 8.48165C94.621 8.10613 94.5444 7.73369 94.3891 7.39163C94.2338 7.04957 94.0039 6.74658 93.7161 6.50489C93.1223 5.99501 92.3596 5.72458 91.577 5.74638C90.8334 5.72661 90.11 5.98949 89.5529 6.48192C88.9907 7.00614 88.639 7.71705 88.5636 8.48165H94.6134ZM115.666 16.1702L120.152 0H116.678L113.826 12.3892L110.743 0H107.155L103.888 12.4581L102.209 0H98.7584L101.933 16.1932L104.523 16.1774C104.863 16.1753 105.193 16.062 105.463 15.8548C105.733 15.6476 105.927 15.3578 106.017 15.0298L108.857 4.62009L111.567 15.0058C111.654 15.3393 111.849 15.6345 112.122 15.8452C112.395 16.0559 112.73 16.1702 113.075 16.1702H115.666ZM120.058 9.63085C120.035 8.44518 120.296 7.27114 120.818 6.206C121.291 5.26242 122.015 4.4672 122.911 3.90746C123.806 3.36955 124.833 3.09102 125.878 3.10298C126.741 3.08227 127.596 3.27994 128.363 3.67761C129.04 4.0238 129.63 4.5189 130.088 5.12569V3.30983H133.332V16.1702H131.646C131.233 16.1702 130.837 16.0061 130.544 15.7141C130.252 15.4221 130.088 15.026 130.088 14.6129V14.182C129.635 14.7851 129.043 15.27 128.363 15.5956C127.587 15.9916 126.726 16.189 125.855 16.1702C124.815 16.1795 123.794 15.8925 122.911 15.3427C122.021 14.8012 121.297 14.026 120.818 13.1017C120.296 12.0202 120.036 10.8313 120.058 9.63085H120.058ZM130.088 9.67681C130.108 8.98189 129.95 8.29333 129.628 7.67707C129.347 7.13696 128.916 6.68984 128.386 6.38991C127.881 6.09285 127.307 5.93428 126.721 5.93024C126.135 5.9262 125.559 6.07683 125.05 6.36689C124.527 6.67543 124.098 7.12037 123.808 7.65408C123.488 8.26272 123.329 8.94343 123.348 9.63085C123.333 10.3326 123.491 11.0272 123.808 11.6536C124.101 12.1906 124.529 12.6421 125.05 12.9638C125.55 13.2643 126.123 13.4232 126.706 13.4234C127.295 13.426 127.873 13.2755 128.386 12.9867C128.909 12.6783 129.338 12.2333 129.628 11.6995C129.948 11.0744 130.106 10.3789 130.088 9.67681ZM139.237 5.28659C139.632 4.63129 140.186 4.08588 140.847 3.7006C141.522 3.31751 141.917 3.30983 142.776 3.30983V6.5048H142.297C141.467 6.44496 140.646 6.69936 139.996 7.21736C139.49 7.69242 139.237 8.5199 139.237 9.69979V16.1702H136.017V3.30983H139.237V5.28659ZM149.671 3.7006C148.998 4.04308 148.414 4.53915 147.969 5.14868V3.30983H144.748V20H147.969V14.228C148.424 14.8023 149 15.2692 149.656 15.5956C150.424 15.9898 151.277 16.1873 152.14 16.1702C153.181 16.1837 154.204 15.8963 155.085 15.3427C155.993 14.8118 156.732 14.0348 157.216 13.1017C157.753 12.0246 158.021 10.8339 157.998 9.63085C158.025 8.44217 157.756 7.26544 157.216 6.206C156.758 5.2644 156.04 4.4726 155.148 3.92312C154.256 3.37364 153.226 3.08918 152.178 3.10298C151.306 3.08786 150.443 3.29344 149.671 3.7006ZM154.226 7.65408C154.561 8.25782 154.728 8.94056 154.709 9.63085C154.728 10.3357 154.561 11.0332 154.226 11.6536C153.941 12.197 153.511 12.6507 152.984 12.9638C152.485 13.2681 151.911 13.4273 151.327 13.4234C150.746 13.424 150.176 13.2734 149.671 12.9867C149.15 12.6648 148.722 12.2134 148.429 11.6766C148.126 11.0533 147.969 10.3696 147.969 9.67681C147.969 8.98406 148.126 8.30032 148.429 7.67707C148.718 7.14356 149.148 6.69868 149.671 6.38991C150.171 6.08936 150.743 5.93045 151.327 5.93018C151.908 5.92571 152.48 6.07647 152.984 6.36689C153.514 6.66685 153.945 7.11399 154.226 7.65408Z" fill="#45395B"/>
<defs>
<linearGradient id="paint0_linear_138_127" x1="42.9456" y1="0" x2="42.9456" y2="16.1702" gradientUnits="userSpaceOnUse">
<stop stop-color="#5AFEFE"/>
<stop offset="1" stop-color="#3090FF"/>
</linearGradient>
<linearGradient id="paint1_linear_138_127" x1="31.1938" y1="-0.690058" x2="13.6436" y2="16.9248" gradientUnits="userSpaceOnUse">
<stop stop-color="#CB86F7"/>
<stop offset="0.654182" stop-color="#5E47EA"/>
</linearGradient>
<linearGradient id="paint2_linear_138_127" x1="4.03677" y1="-0.690058" x2="21.587" y2="16.9248" gradientUnits="userSpaceOnUse">
<stop stop-color="#6381FB"/>
<stop offset="1" stop-color="#9172FA"/>
</linearGradient>
</defs>
</svg>
