<svg width="86" height="50" viewBox="0 0 86 50" fill="none" xmlns="http://www.w3.org/2000/svg">
<path d="M6.72799 0.497558C7.05854 -0.165853 8.01363 -0.165853 8.34418 0.497558L9.97484 3.77021C10.1061 4.03365 10.3598 4.21625 10.6534 4.25849L14.2996 4.78329C15.0388 4.88967 15.3339 5.78937 14.799 6.30577L12.1606 8.85317C11.9482 9.05823 11.8513 9.35368 11.9014 9.64323L12.5243 13.2402C12.6505 13.9694 11.8779 14.5254 11.2167 14.1812L7.95543 12.4829C7.6929 12.3462 7.37927 12.3462 7.11674 12.4829L3.85542 14.1812C3.19431 14.5254 2.42163 13.9694 2.54789 13.2402L3.17075 9.64323C3.22089 9.35368 3.12397 9.05823 2.91158 8.85317L0.273123 6.30577C-0.261728 5.78937 0.0334095 4.88967 0.772555 4.78329L4.41882 4.25849C4.71233 4.21625 4.96606 4.03365 5.09733 3.77021L6.72799 0.497558Z" fill="#F0C61C"/>
<path d="M24.4599 0.497558C24.7905 -0.165853 25.7456 -0.165853 26.0761 0.497558L27.7068 3.77021C27.838 4.03365 28.0918 4.21625 28.3853 4.25849L32.0315 4.78329C32.7707 4.88967 33.0658 5.78937 32.531 6.30577L29.8925 8.85317C29.6801 9.05823 29.5832 9.35368 29.6333 9.64323L30.2562 13.2402C30.3825 13.9694 29.6098 14.5254 28.9487 14.1812L25.6874 12.4829C25.4248 12.3462 25.1112 12.3462 24.8487 12.4829L21.5874 14.1812C20.9262 14.5254 20.1536 13.9694 20.2798 13.2402L20.9027 9.64323C20.9528 9.35368 20.8559 9.05823 20.6435 8.85317L18.0051 6.30577C17.4702 5.78937 17.7653 4.88967 18.5045 4.78329L22.1507 4.25849C22.4443 4.21625 22.698 4.03365 22.8293 3.77021L24.4599 0.497558Z" fill="#F0C61C"/>
<path d="M42.1919 0.497558C42.5224 -0.165853 43.4775 -0.165853 43.808 0.497558L45.4387 3.77021C45.57 4.03365 45.8237 4.21625 46.1172 4.25849L49.7635 4.78329C50.5026 4.88967 50.7978 5.78937 50.2629 6.30577L47.6245 8.85317C47.4121 9.05823 47.3151 9.35368 47.3653 9.64323L47.9881 13.2402C48.1144 13.9694 47.3417 14.5254 46.6806 14.1812L43.4193 12.4829C43.1568 12.3462 42.8431 12.3462 42.5806 12.4829L39.3193 14.1812C38.6582 14.5254 37.8855 13.9694 38.0118 13.2402L38.6346 9.64323C38.6848 9.35368 38.5878 9.05823 38.3754 8.85317L35.737 6.30577C35.2021 5.78937 35.4973 4.88967 36.2364 4.78329L39.8827 4.25849C40.1762 4.21625 40.4299 4.03365 40.5612 3.77021L42.1919 0.497558Z" fill="#F0C61C"/>
<path d="M59.9238 0.497558C60.2543 -0.165853 61.2094 -0.165853 61.54 0.497558L63.1706 3.77021C63.3019 4.03365 63.5556 4.21625 63.8492 4.25849L67.4954 4.78329C68.2346 4.88967 68.5297 5.78937 67.9948 6.30577L65.3564 8.85317C65.144 9.05823 65.0471 9.35368 65.0972 9.64323L65.7201 13.2402C65.8463 13.9694 65.0737 14.5254 64.4125 14.1812L61.1512 12.4829C60.8887 12.3462 60.5751 12.3462 60.3125 12.4829L57.0512 14.1812C56.3901 14.5254 55.6174 13.9694 55.7437 13.2402L56.3666 9.64323C56.4167 9.35368 56.3198 9.05823 56.1074 8.85317L53.4689 6.30577C52.9341 5.78937 53.2292 4.88967 53.9684 4.78329L57.6146 4.25849C57.9081 4.21625 58.1619 4.03365 58.2931 3.77021L59.9238 0.497558Z" fill="#F0C61C"/>
<path d="M77.6557 0.497558C77.9863 -0.165853 78.9414 -0.165853 79.2719 0.497558L80.9026 3.77021C81.0338 4.03365 81.2876 4.21625 81.5811 4.25849L85.2273 4.78329C85.9665 4.88967 86.2616 5.78937 85.7268 6.30577L83.0883 8.85317C82.8759 9.05823 82.779 9.35368 82.8292 9.64323L83.452 13.2402C83.5783 13.9694 82.8056 14.5254 82.1445 14.1812L78.8832 12.4829C78.6206 12.3462 78.307 12.3462 78.0445 12.4829L74.7832 14.1812C74.122 14.5254 73.3494 13.9694 73.4756 13.2402L74.0985 9.64323C74.1486 9.35368 74.0517 9.05823 73.8393 8.85317L71.2009 6.30577C70.666 5.78937 70.9611 4.88967 71.7003 4.78329L75.3465 4.25849C75.6401 4.21625 75.8938 4.03365 76.0251 3.77021L77.6557 0.497558Z" fill="#F0C61C"/>
<path fill-rule="evenodd" clip-rule="evenodd" d="M49.1131 28.5713L56.7908 42.198V28.5713H60.3099L60.3099 48.9794H56.5062L48.9468 35.6719L48.9468 48.9794H45.4277L45.4277 28.5713H49.1131ZM67.8639 38.5872C67.3457 39.197 67.0904 40.0375 67.0979 41.0936H72.5541C72.5278 39.9705 72.2574 39.1189 71.7355 38.5388C71.2172 37.9513 70.5826 37.6612 69.8391 37.6612C69.0393 37.6612 68.3821 37.9699 67.8639 38.5872ZM69.6175 34.6937C71.6715 34.6937 73.29 35.4188 74.4804 36.8542C75.6632 38.2934 76.2302 40.4985 76.1814 43.4661H67.0302C67.0565 44.6151 67.3494 45.5076 67.9127 46.1435C68.476 46.7831 69.1819 47.1029 70.0193 47.1029C70.5938 47.1029 71.0707 46.9393 71.4613 46.6083C71.8518 46.2774 72.1484 45.7419 72.3437 45.0093L75.9861 45.6564C75.5168 47.0695 74.7808 48.1441 73.7706 48.8879C72.7605 49.6316 71.4988 49.9998 69.9818 49.9998C67.5785 49.9998 65.8061 49.1705 64.6533 47.5045C63.7445 46.1695 63.2864 44.485 63.2864 42.4583C63.2864 40.0337 63.8872 38.1297 65.0814 36.7576C66.2755 35.3854 67.7888 34.6937 69.6175 34.6937ZM84.8094 46.3705C84.1831 46.6155 83.7069 46.7474 83.3699 46.7474C83.1392 46.7474 82.9341 46.6796 82.7692 46.5514C82.6044 46.4195 82.5019 46.2575 82.4543 46.054C82.4066 45.8542 82.3847 45.1494 82.3847 43.9359V37.9586H84.8167V34.8267H82.3847V29.5918L78.8098 31.8757V34.8267H77.1762V37.9586L78.8098 37.9586V44.4221C78.8098 45.8128 78.8501 46.7361 78.9234 47.1921C79.0186 47.8328 79.1834 48.3416 79.4252 48.7185C79.6669 49.0992 80.0442 49.4082 80.5606 49.6456C81.0734 49.8793 81.6558 49.9999 82.2931 49.9999C83.348 49.9999 84.2783 49.8039 85.1134 49.412L84.8094 46.3705ZM22.9424 29.5918H32.1616C40.3947 29.5918 42.4512 35.2181 42.4512 39.794C42.4512 45.2745 39.339 49.9999 32.1616 49.9999H29.2914V45.0988H31.0766C36.6191 45.0988 36.6777 40.8445 36.6777 39.794C36.6777 38.6575 36.6191 34.4891 31.0766 34.4891H28.5436L28.5436 44.1717L24.1704 49.9999L1.77319 49.9999L11.9344 34.4891H2.08844L5.28124 29.5918L21.0216 29.5918L11.5349 45.0988H22.9424L22.9424 29.5918Z" fill="#727F96"/>
</svg>
